<svg version="1.2" xmlns="http://www.w3.org/2000/svg" viewBox="0 0 1312 260" width="1312" height="260">
	<title>iima-ai</title>
	<style>
		.s0 { fill: #232021 } 
		.s1 { fill: #ec1c23 } 
	</style>
	<g id="_Artboards_">
	</g>
	<g id="Layer 1">
		<g id="&lt;Group&gt;">
			<g id="&lt;Group&gt;">
				<path id="&lt;Compound Path&gt;" fill-rule="evenodd" class="s0" d="m0 28c71.6 0 143.3 0 214.9 0 0.1 67.8-0.3 135.6 0.2 203.5-71.7 1.1-143.4 0.1-215.1 0.5zm23.1 16.7c0.1 5.7 0.2 11.4 0.3 17.2 5.8-5.8 11.4-11.6 17.1-17.5q-8.7 0.2-17.4 0.3zm2.6 64.1c-1.9 14-2 28.4 0.1 42.4 7.5 32.1 36.3 57.6 69 61.8 0.4-15.2 0.4-30.2 0.2-45.4-13.9-0.8-27.8-1-41.8-1.2 0-5.7-0.1-11.4-0.2-17.2 13.8-0.4 27.6-0.8 41.4-1.7 0.4-10.3 1.1-20.5 2.4-30.7q10.7 0.3 21.3 0.6c0.8 10.1 1.5 20.2 2.4 30.2 12.9 0.7 25.8 0.3 38.6 1.5 6.3 4.1 1.6 11.7 1.3 17.5-13.3-0.1-26.6 0.2-39.9 0.9-1.4 15.1-1.3 30.4 0.2 45.5 40.3-5.4 73.7-44 70.8-85.1 1.7-43-37.2-81.5-79.6-82.8-38.8-2.7-77.8 25.5-86.2 63.7zm149.2-64q8.3 8.7 17.1 16.9-0.1-8.5-0.2-16.9c-5.6-0.1-11.3 0-16.9 0zm-151.9 152.9c0.2 5.6 0.4 11.3 0.6 16.9q8.5-0.1 16.9-0.1c-5.7-5.7-11.5-11.3-17.5-16.8zm152.1 16.2c5.5 0.3 11.1 0.5 16.6 0.8q0.2-8.4 0.3-16.8c-5.7 5.3-11.4 10.6-16.9 16z"/>
			</g>
			<path id="&lt;Path&gt;" class="s0" d="m220 32c18.6 0.2 37.1 0 55.6 0.1 0.2 5.2 0.3 10.5 0.5 15.7-18.7-0.1-37.4-0.2-56.1 0.2q-0.1-8 0-16z"/>
			<path id="&lt;Path&gt;" class="s0" d="m95.1 51.2c7.7 0.2 15.5 0.4 23.2 0.8 0.9 12.5 0.1 26.7 9.3 36.6 14.9 20 39.1 28 60.8 38.3-5.4 4.9-10.1 11.2-17 14.1-24.8-3.7-44.3-21.2-62.8-36.8-21 18.5-47 32.9-75.1 35.8-2.2-4.4-4.5-8.9-6.7-13.2 20.4-11.2 45.6-16.3 60.4-35.6 9.2-11.3 6.5-26.6 7.9-40z"/>
			<path id="&lt;Path&gt;" class="s0" d="m341.6 52.6c9.2-3.8 19.8-3.9 29.1-0.2 9.6 6.7 9.8 20.8 3.6 29.9-10.9 7.3-29.7 8.2-38.2-3.2-2.3-8.8-2.8-20.7 5.5-26.5z"/>
			<path id="&lt;Path&gt;" class="s0" d="m397.7 53c9.2-4.2 19.9-4.2 29.3-0.8 11.9 7.7 10.7 31.2-4.5 34.2-10.2 1.9-23.9 2.3-30.2-7.6-2.5-8.5-2.8-20.2 5.4-25.8z"/>
			<path id="&lt;Path&gt;" class="s0" d="m1155.4 52q20.3 0 40.6 0 0 23.6 0 47.4c11.6-7.6 25.2-14.2 39.4-10.6 11.6 1.4 18.8 13 18.8 24 1.1 31.7 0 63.5 0.5 95.2-13.9 0-27.8 0-41.7 0-0.8-27.7 2-55.7-1.7-83.2-5 1.1-10 2.2-14.9 3.3-0.7 26.6-0.3 53.2-0.3 79.9-13.6 0-27.1-0.1-40.7 0 0.4-52 0-104 0-156z"/>
			<path id="&lt;Path&gt;" class="s0" d="m1268.4 61.5c7.4-16.7 34.2-15.3 43.6-0.9v15c-7.1 14.4-26.8 14.6-39.2 7.5-5.4-5.8-5.9-14.3-4.4-21.6z"/>
			<path id="&lt;Path&gt;" class="s0" d="m220 56c18.6 0 37.2 0 55.9 0q0 7.8 0.1 15.5c-8.4 1.8-24.7-4.4-22.6 9.6 7.4 1.7 15 1.3 22.6 1.6 0 3.7 0 11.3 0 15.1-18.7-0.5-37.4 0.2-56 0.1 0-3.9 0-11.7 0-15.6 9.1-0.3 23.4 4.1 22.6-10-7.6-0.3-15.1-0.4-22.6-0.4-0.1-5.3 0-10.6 0-15.9z"/>
			<path id="&lt;Path&gt;" class="s0" d="m587.3 99.2c16.1-13.3 41.7-16.5 56.5 0.5 11.9-7.6 25.4-14.5 40-11 13.4 1.1 20.2 15 19.8 27.1 0.3 30.7-0.1 61.5 0.2 92.2q-20.8-0.2-41.6 0c-0.6-27.6 0.8-55.2-0.8-82.7-5.4 0.7-10.7 1.5-16 2.6-0.4 26.7-0.1 53.4-0.2 80.1-13.8-0.2-27.5-0.1-41.2 0-0.1-27.3 0.2-54.6-0.2-81.8q-8 0.3-16 0.9c-0.6 26.9-0.2 53.9-0.2 80.8-13.7 0.1-27.3 0.1-40.9 0.1 0.1-39-0.1-78 0-116.9 11.5 0 23 0.1 34.5-0.4 2 2.8 4.1 5.7 6.1 8.5z"/>
			<g id="&lt;Group&gt;">
				<path id="&lt;Compound Path&gt;" fill-rule="evenodd" class="s0" d="m716.8 96.1c22.7-5.1 46.4-11.3 69.7-6 10.3 2.2 18 11.5 18.6 22.1 1.5 21.2-0.4 42.6-0.8 63.8q5.4 2.9 10.9 5.6c-1.6 9.2-2.8 18.5-3.6 27.8-14 1.6-30 2.4-39.5-10.1-14.7 14.5-45.2 16.5-54.4-5-5.1-14.6-6-34.7 7.3-45.5 11.7-8.5 26.7-8.3 40.2-12.2 4.8-2.2-0.3-9.1-2.4-11.9-13.6-0.2-26.8 3.6-39.7 7.1-2.1-11.9-4.1-23.8-6.3-35.7zm35.9 68.9c-0.2 5.2-0.3 10.5-0.5 15.7 5 0.1 10.1 0 15.1-0.1q0.5-10.5 0.5-21c-5 1.7-10.1 3.6-15.1 5.4z"/>
			</g>
			<path id="&lt;Path&gt;" class="s0" d="m888.2 92.5c18.9-8.5 40.2-3.3 59.8 0-1.1 11.5-2.6 23-4.1 34.5-13.6-2.6-27.9-8.4-41.5-3 14.2 10.6 34.5 13.7 44 29.9 7.9 17.9 5.3 46-15.7 53.7-18 5.6-37.1 1.1-55.2-1.2 0.2-11.4 0.7-22.7 1.3-34 12.9 3.5 26 6.5 39.4 6.9-0.4-1.5-1.2-4.7-1.6-6.3-13-8.1-29.5-11.6-39.2-24.4-12.1-17.5-8-47 12.8-56.1z"/>
			<path id="&lt;Path&gt;" class="s0" d="m1084.5 92.6c18.9-8.7 40.5-3.2 60.1-0.1-0.8 11.6-2.2 23.1-4 34.6-11.5-2.4-23-5.9-34.8-5.6-1.2 1.3-3.5 4-4.7 5.3 14.6 7.2 32.5 11.9 41.7 26.5 8.8 17.4 6.1 43.5-12.6 53.2-18.8 7.3-39.3 2.3-58.4-0.3 0.5-11.4 1.4-22.6 2.1-33.9 12.6 3.5 25.4 6.4 38.5 7.1-0.4-1.6-1.2-4.9-1.5-6.5-13.6-8.8-31.9-12.3-40.5-27.3-9-17.6-5.3-44 14.1-53z"/>
			<path id="&lt;Path&gt;" class="s0" d="m336.2 92.1c13.3 0.1 26.6 0.1 40-0.1-0.3 38.7-0.1 77.4-0.1 116-13.3 0-26.6 0-39.9 0 0-38.6 0-77.2 0-115.9z"/>
			<path id="&lt;Path&gt;" class="s0" d="m392.6 92.1c13.3 0.1 26.7 0.1 40-0.1 0.1 38.6 0.1 77.3 0.1 116-13.4 0-26.7 0-40.1 0 0-38.6 0.1-77.3 0-115.9z"/>
			<path id="&lt;Path&gt;" class="s0" d="m958.7 91.1c13.8-0.1 27.5 0 41.3-0.1 0.1 27.6-0.2 55.2 0.2 82.7 5.4-0.3 10.8-0.7 16.2-1.1 0.1-27.2 0.1-54.4-0.1-81.6 13.7 0.1 27.3 0 41 0.1 0.3 38.9-0.1 77.8 0.2 116.7-12-0.5-24.1 0.2-36.1-0.7-1-1.7-3-5.3-4.1-7-11 7-23.9 12.4-37.3 9.7-12.6-1.3-21-13.7-20.9-25.7-1.1-31-0.1-62-0.4-93z"/>
			<path id="&lt;Path&gt;" class="s0" d="m1270.1 92c12.6 0.2 25.2 0.3 37.9 0 1.2 38.6 1.2 77.4 0 116-12.7 0-25.3-0.1-37.9 0 0-38.7-0.1-77.4 0-116z"/>
			<path id="&lt;Path&gt;" class="s0" d="m220 104.3q7.1 0.8 14.3 1.7c-0.8 6.3-1.4 12.6-1.5 19 6.4-6 10.7-13.6 16.8-19.8 7-2 17-3.5 22.4 2.9 7.9 7.3 2.9 19.3 3.6 28.8-4.9 0-9.9-0.1-14.9-0.2 1.1-6.1 2.1-12.3 2.7-18.5-11.6 5.2-14.6 24.7-30.5 21.1-17.5-2.5-14-22.3-12.9-35z"/>
			<path id="&lt;Path&gt;" class="s0" d="m452.6 128c25 0.3 50 0.1 75 0 0 10.8 0 21.6 0.2 32.4-25.2-0.6-50.4-0.3-75.5-0.2 0.3-10.7 0.3-21.5 0.3-32.2z"/>
			<path id="&lt;Path&gt;" class="s0" d="m220 144.2c14.4 0.3 28.9-0.6 43.3 0.8 16.4 3.1 17 27.7 7.1 37.9-16.3 5.2-33.8 2.4-50.6 2.9q0.1-8.2 0.3-16.4c13.1 0.3 26.2 1 39.3 0.3 1.3-2.1 3.8-6.2 5-8.3-14.7-2.1-29.6-1.2-44.4-1.4 0-5.2 0-10.5 0-15.8z"/>
			<path id="&lt;Path&gt;" class="s0" d="m219.9 192.3q7.2 0.8 14.4 1.7c-0.8 6.3-1.4 12.6-1.5 19 6.4-5.9 10.7-13.6 16.8-19.8 7-2.1 17.1-3.6 22.3 2.9 8 7.3 3 19.3 3.7 28.8-4.9 0-9.9-0.1-14.9-0.2 1.1-6.1 2.1-12.3 2.7-18.5-11.6 5.2-14.6 24.7-30.5 21.1-17.5-2.5-14-22.3-13-35z"/>
		</g>
		<g id="&lt;Group&gt;">
			<g id="&lt;Group&gt;">
				<path id="&lt;Compound Path&gt;" fill-rule="evenodd" class="s1" d="m25.7 108.8c8.4-38.2 47.4-66.4 86.2-63.7 42.4 1.3 81.3 39.8 79.6 82.8 2.9 41.1-30.5 79.7-70.8 85.1-1.5-15.1-1.6-30.4-0.2-45.5 13.3-0.7 26.6-1 39.9-0.9 0.3-5.8 5-13.4-1.3-17.5-12.8-1.2-25.7-0.8-38.6-1.5-0.9-10-1.6-20.1-2.4-30.2q-10.6-0.3-21.3-0.6c-1.3 10.2-2 20.4-2.4 30.7-13.8 0.9-27.6 1.3-41.4 1.7 0.1 5.8 0.2 11.5 0.2 17.2 14 0.2 27.9 0.4 41.8 1.2 0.2 15.2 0.2 30.2-0.2 45.4-32.7-4.2-61.5-29.7-69-61.8-2.1-14-2-28.4-0.1-42.4zm69.4-57.6c-1.4 13.4 1.3 28.7-7.9 40-14.8 19.3-40 24.4-60.4 35.6 2.2 4.3 4.5 8.8 6.7 13.2 28.1-2.9 54.1-17.3 75.1-35.8 18.5 15.6 38 33.1 62.8 36.8 6.9-2.9 11.6-9.2 17-14.1-21.7-10.3-45.9-18.3-60.8-38.3-9.2-9.9-8.4-24.1-9.3-36.6-7.7-0.4-15.5-0.6-23.2-0.8z"/>
			</g>
		</g>
	</g>
</svg>